<?xml version="1.0" encoding="UTF-8" standalone="no"?>
<!DOCTYPE svg PUBLIC "-//W3C//DTD SVG 1.1//EN"
 "http://www.w3.org/Graphics/SVG/1.1/DTD/svg11.dtd">
<!-- Generated by graphviz version 5.0.0 (20220707.1540)
 -->
<!-- Title: dependencies Pages: 1 -->
<svg width="634pt" height="174pt"
 viewBox="0.00 0.00 634.00 173.80" xmlns="http://www.w3.org/2000/svg" xmlns:xlink="http://www.w3.org/1999/xlink">
<g id="graph0" class="graph" transform="scale(1 1) rotate(0) translate(4 169.8)">
<title>dependencies</title>
<polygon fill="white" stroke="transparent" points="-4,4 -4,-169.8 630,-169.8 630,4 -4,4"/>
<text text-anchor="middle" x="313" y="-8.2" font-family="sans-serif" font-size="14.00">dependencies</text>
<g id="clust1" class="cluster">
<title>cluster_SaladModule</title>
<polygon fill="none" stroke="black" stroke-dasharray="1,5" points="8,-32.8 8,-157.8 618,-157.8 618,-32.8 8,-32.8"/>
</g>
<g id="clust3" class="cluster">
<title>cluster_SaladModule_imports</title>
<polygon fill="none" stroke="black" points="508,-40.8 508,-92.8 610,-92.8 610,-40.8 508,-40.8"/>
</g>
<g id="clust6" class="cluster">
<title>cluster_SaladModule_providers</title>
<polygon fill="none" stroke="black" points="16,-40.8 16,-92.8 500,-92.8 500,-40.8 16,-40.8"/>
</g>
<!-- DataModule -->
<g id="node1" class="node">
<title>DataModule</title>
<polygon fill="#8dd3c7" stroke="black" points="601.98,-84.8 598.98,-88.8 577.98,-88.8 574.98,-84.8 516.02,-84.8 516.02,-48.8 601.98,-48.8 601.98,-84.8"/>
<text text-anchor="middle" x="559" y="-62.6" font-family="Times,serif" font-size="14.00">DataModule</text>
</g>
<!-- SaladModule -->
<g id="node2" class="node">
<title>SaladModule</title>
<polygon fill="#8dd3c7" stroke="black" points="380.16,-149.8 377.16,-153.8 356.16,-153.8 353.16,-149.8 289.84,-149.8 289.84,-113.8 380.16,-113.8 380.16,-149.8"/>
<text text-anchor="middle" x="335" y="-127.6" font-family="Times,serif" font-size="14.00">SaladModule</text>
</g>
<!-- DataModule&#45;&gt;SaladModule -->
<g id="edge1" class="edge">
<title>DataModule&#45;&gt;SaladModule</title>
<path fill="none" stroke="black" d="M559,-84.91C559,-104.14 559,-131.8 559,-131.8 559,-131.8 390.33,-131.8 390.33,-131.8"/>
<polygon fill="black" stroke="black" points="390.33,-128.3 380.33,-131.8 390.33,-135.3 390.33,-128.3"/>
</g>
<!-- DressingsService -->
<g id="node3" class="node">
<title>DressingsService</title>
<ellipse fill="#fdb462" stroke="black" cx="414" cy="-66.8" rx="78.17" ry="18"/>
<text text-anchor="middle" x="414" y="-62.6" font-family="Times,serif" font-size="14.00">DressingsService</text>
</g>
<!-- DressingsService&#45;&gt;SaladModule -->
<g id="edge2" class="edge">
<title>DressingsService&#45;&gt;SaladModule</title>
<path fill="none" stroke="black" d="M358.12,-79.64C358.12,-79.64 358.12,-103.32 358.12,-103.32"/>
<polygon fill="black" stroke="black" points="354.62,-103.32 358.12,-113.32 361.62,-103.32 354.62,-103.32"/>
</g>
<!-- SaladService -->
<g id="node4" class="node">
<title>SaladService</title>
<ellipse fill="#fdb462" stroke="black" cx="256" cy="-66.8" rx="61.4" ry="18"/>
<text text-anchor="middle" x="256" y="-62.6" font-family="Times,serif" font-size="14.00">SaladService</text>
</g>
<!-- SaladService&#45;&gt;SaladModule -->
<g id="edge3" class="edge">
<title>SaladService&#45;&gt;SaladModule</title>
<path fill="none" stroke="black" d="M303.56,-78.42C303.56,-78.42 303.56,-103.65 303.56,-103.65"/>
<polygon fill="black" stroke="black" points="300.06,-103.65 303.56,-113.65 307.06,-103.65 300.06,-103.65"/>
</g>
<!-- ToppingsService -->
<g id="node5" class="node">
<title>ToppingsService</title>
<ellipse fill="#fdb462" stroke="black" cx="100" cy="-66.8" rx="76.45" ry="18"/>
<text text-anchor="middle" x="100" y="-62.6" font-family="Times,serif" font-size="14.00">ToppingsService</text>
</g>
<!-- ToppingsService&#45;&gt;SaladModule -->
<g id="edge4" class="edge">
<title>ToppingsService&#45;&gt;SaladModule</title>
<path fill="none" stroke="black" d="M100,-84.91C100,-104.14 100,-131.8 100,-131.8 100,-131.8 279.69,-131.8 279.69,-131.8"/>
<polygon fill="black" stroke="black" points="279.69,-135.3 289.69,-131.8 279.69,-128.3 279.69,-135.3"/>
</g>
</g>
</svg>
