<?xml version="1.0" encoding="UTF-8" standalone="no"?>
<!DOCTYPE svg PUBLIC "-//W3C//DTD SVG 1.1//EN"
 "http://www.w3.org/Graphics/SVG/1.1/DTD/svg11.dtd">
<!-- Generated by graphviz version 5.0.0 (20220707.1540)
 -->
<!-- Title: dependencies Pages: 1 -->
<svg width="733pt" height="174pt"
 viewBox="0.00 0.00 733.00 173.80" xmlns="http://www.w3.org/2000/svg" xmlns:xlink="http://www.w3.org/1999/xlink">
<g id="graph0" class="graph" transform="scale(1 1) rotate(0) translate(4 169.8)">
<title>dependencies</title>
<polygon fill="white" stroke="transparent" points="-4,4 -4,-169.8 729,-169.8 729,4 -4,4"/>
<text text-anchor="middle" x="362.5" y="-8.2" font-family="sans-serif" font-size="14.00">dependencies</text>
<g id="clust1" class="cluster">
<title>cluster_AppModule</title>
<polygon fill="none" stroke="black" stroke-dasharray="1,5" points="8,-32.8 8,-157.8 717,-157.8 717,-32.8 8,-32.8"/>
</g>
<g id="clust3" class="cluster">
<title>cluster_AppModule_imports</title>
<polygon fill="none" stroke="black" points="499,-40.8 499,-92.8 709,-92.8 709,-40.8 499,-40.8"/>
</g>
<g id="clust6" class="cluster">
<title>cluster_AppModule_providers</title>
<polygon fill="none" stroke="black" points="16,-40.8 16,-92.8 491,-92.8 491,-40.8 16,-40.8"/>
</g>
<!-- DataModule -->
<g id="node1" class="node">
<title>DataModule</title>
<polygon fill="#8dd3c7" stroke="black" points="700.98,-84.8 697.98,-88.8 676.98,-88.8 673.98,-84.8 615.02,-84.8 615.02,-48.8 700.98,-48.8 700.98,-84.8"/>
<text text-anchor="middle" x="658" y="-62.6" font-family="Times,serif" font-size="14.00">DataModule</text>
</g>
<!-- AppModule -->
<g id="node3" class="node">
<title>AppModule</title>
<polygon fill="#8dd3c7" stroke="black" points="467.66,-149.8 464.66,-153.8 443.66,-153.8 440.66,-149.8 384.34,-149.8 384.34,-113.8 467.66,-113.8 467.66,-149.8"/>
<text text-anchor="middle" x="426" y="-127.6" font-family="Times,serif" font-size="14.00">AppModule</text>
</g>
<!-- DataModule&#45;&gt;AppModule -->
<g id="edge1" class="edge">
<title>DataModule&#45;&gt;AppModule</title>
<path fill="none" stroke="black" d="M658,-85.08C658,-106.12 658,-137.8 658,-137.8 658,-137.8 477.74,-137.8 477.74,-137.8"/>
<polygon fill="black" stroke="black" points="477.74,-134.3 467.74,-137.8 477.74,-141.3 477.74,-134.3"/>
</g>
<!-- SaladModule -->
<g id="node2" class="node">
<title>SaladModule</title>
<polygon fill="#8dd3c7" stroke="black" points="597.16,-84.8 594.16,-88.8 573.16,-88.8 570.16,-84.8 506.84,-84.8 506.84,-48.8 597.16,-48.8 597.16,-84.8"/>
<text text-anchor="middle" x="552" y="-62.6" font-family="Times,serif" font-size="14.00">SaladModule</text>
</g>
<!-- SaladModule&#45;&gt;AppModule -->
<g id="edge2" class="edge">
<title>SaladModule&#45;&gt;AppModule</title>
<path fill="none" stroke="black" d="M552,-84.82C552,-102.17 552,-125.8 552,-125.8 552,-125.8 477.96,-125.8 477.96,-125.8"/>
<polygon fill="black" stroke="black" points="477.96,-122.3 467.96,-125.8 477.96,-129.3 477.96,-122.3"/>
</g>
<!-- AppService -->
<g id="node4" class="node">
<title>AppService</title>
<ellipse fill="#fdb462" stroke="black" cx="426" cy="-66.8" rx="56.75" ry="18"/>
<text text-anchor="middle" x="426" y="-62.6" font-family="Times,serif" font-size="14.00">AppService</text>
</g>
<!-- AppService&#45;&gt;AppModule -->
<g id="edge3" class="edge">
<title>AppService&#45;&gt;AppModule</title>
<path fill="none" stroke="black" d="M426,-84.91C426,-84.91 426,-103.79 426,-103.79"/>
<polygon fill="black" stroke="black" points="422.5,-103.79 426,-113.79 429.5,-103.79 422.5,-103.79"/>
</g>
<!-- DressingsService -->
<g id="node5" class="node">
<title>DressingsService</title>
<ellipse fill="#fdb462" stroke="black" cx="273" cy="-66.8" rx="78.17" ry="18"/>
<text text-anchor="middle" x="273" y="-62.6" font-family="Times,serif" font-size="14.00">DressingsService</text>
</g>
<!-- DressingsService&#45;&gt;AppModule -->
<g id="edge4" class="edge">
<title>DressingsService&#45;&gt;AppModule</title>
<path fill="none" stroke="black" d="M273,-84.82C273,-102.17 273,-125.8 273,-125.8 273,-125.8 374.19,-125.8 374.19,-125.8"/>
<polygon fill="black" stroke="black" points="374.19,-129.3 384.19,-125.8 374.19,-122.3 374.19,-129.3"/>
</g>
<!-- ToppingsService -->
<g id="node6" class="node">
<title>ToppingsService</title>
<ellipse fill="#fdb462" stroke="black" cx="100" cy="-66.8" rx="76.45" ry="18"/>
<text text-anchor="middle" x="100" y="-62.6" font-family="Times,serif" font-size="14.00">ToppingsService</text>
</g>
<!-- ToppingsService&#45;&gt;AppModule -->
<g id="edge5" class="edge">
<title>ToppingsService&#45;&gt;AppModule</title>
<path fill="none" stroke="black" d="M100,-85.08C100,-106.12 100,-137.8 100,-137.8 100,-137.8 374.05,-137.8 374.05,-137.8"/>
<polygon fill="black" stroke="black" points="374.05,-141.3 384.05,-137.8 374.05,-134.3 374.05,-141.3"/>
</g>
</g>
</svg>
