<?xml version="1.0" encoding="UTF-8" standalone="no"?>
<!DOCTYPE svg PUBLIC "-//W3C//DTD SVG 1.1//EN"
 "http://www.w3.org/Graphics/SVG/1.1/DTD/svg11.dtd">
<!-- Generated by graphviz version 5.0.0 (20220707.1540)
 -->
<!-- Title: dependencies Pages: 1 -->
<svg width="803pt" height="239pt"
 viewBox="0.00 0.00 803.00 238.80" xmlns="http://www.w3.org/2000/svg" xmlns:xlink="http://www.w3.org/1999/xlink">
<g id="graph0" class="graph" transform="scale(1 1) rotate(0) translate(4 234.8)">
<title>dependencies</title>
<polygon fill="white" stroke="transparent" points="-4,4 -4,-234.8 799,-234.8 799,4 -4,4"/>
<text text-anchor="middle" x="397.5" y="-8.2" font-family="sans-serif" font-size="14.00">dependencies</text>
<g id="clust1" class="cluster">
<title>cluster_AppModule</title>
<polygon fill="none" stroke="black" stroke-dasharray="1,5" points="8,-32.8 8,-222.8 625,-222.8 625,-32.8 8,-32.8"/>
</g>
<g id="clust3" class="cluster">
<title>cluster_AppModule_imports</title>
<polygon fill="none" stroke="black" points="499,-40.8 499,-157.8 605,-157.8 605,-40.8 499,-40.8"/>
</g>
<g id="clust6" class="cluster">
<title>cluster_AppModule_providers</title>
<polygon fill="none" stroke="black" points="16,-40.8 16,-92.8 491,-92.8 491,-40.8 16,-40.8"/>
</g>
<g id="clust13" class="cluster">
<title>cluster_SaladModule</title>
<polygon fill="none" stroke="black" stroke-dasharray="1,5" points="633,-32.8 633,-100.8 787,-100.8 787,-32.8 633,-32.8"/>
</g>
<g id="clust18" class="cluster">
<title>cluster_SaladModule_providers</title>
<polygon fill="none" stroke="black" points="641,-40.8 641,-92.8 779,-92.8 779,-40.8 641,-40.8"/>
</g>
<!-- DataModule -->
<g id="node1" class="node">
<title>DataModule</title>
<polygon fill="#8dd3c7" stroke="black" points="595.98,-84.8 592.98,-88.8 571.98,-88.8 568.98,-84.8 510.02,-84.8 510.02,-48.8 595.98,-48.8 595.98,-84.8"/>
<text text-anchor="middle" x="553" y="-62.6" font-family="Times,serif" font-size="14.00">DataModule</text>
</g>
<!-- SaladModule -->
<g id="node2" class="node">
<title>SaladModule</title>
<polygon fill="#8dd3c7" stroke="black" points="597.16,-149.8 594.16,-153.8 573.16,-153.8 570.16,-149.8 506.84,-149.8 506.84,-113.8 597.16,-113.8 597.16,-149.8"/>
<text text-anchor="middle" x="552" y="-127.6" font-family="Times,serif" font-size="14.00">SaladModule</text>
</g>
<!-- DataModule&#45;&gt;SaladModule -->
<g id="edge6" class="edge">
<title>DataModule&#45;&gt;SaladModule</title>
<path fill="none" stroke="black" d="M553,-84.91C553,-84.91 553,-103.79 553,-103.79"/>
<polygon fill="black" stroke="black" points="549.5,-103.79 553,-113.79 556.5,-103.79 549.5,-103.79"/>
</g>
<!-- AppModule -->
<g id="node3" class="node">
<title>AppModule</title>
<polygon fill="#8dd3c7" stroke="black" points="446.66,-214.8 443.66,-218.8 422.66,-218.8 419.66,-214.8 363.34,-214.8 363.34,-178.8 446.66,-178.8 446.66,-214.8"/>
<text text-anchor="middle" x="405" y="-192.6" font-family="Times,serif" font-size="14.00">AppModule</text>
</g>
<!-- DataModule&#45;&gt;AppModule -->
<g id="edge1" class="edge">
<title>DataModule&#45;&gt;AppModule</title>
<path fill="none" stroke="black" d="M509.85,-66.8C501.29,-66.8 494.88,-66.8 494.88,-66.8 494.88,-66.8 494.88,-196.8 494.88,-196.8 494.88,-196.8 456.78,-196.8 456.78,-196.8"/>
<polygon fill="black" stroke="black" points="456.78,-193.3 446.78,-196.8 456.78,-200.3 456.78,-193.3"/>
</g>
<!-- SaladModule&#45;&gt;AppModule -->
<g id="edge2" class="edge">
<title>SaladModule&#45;&gt;AppModule</title>
<path fill="none" stroke="black" d="M506.58,-140.8C468.04,-140.8 418.94,-140.8 418.94,-140.8 418.94,-140.8 418.94,-168.77 418.94,-168.77"/>
<polygon fill="black" stroke="black" points="415.44,-168.77 418.94,-178.77 422.44,-168.77 415.44,-168.77"/>
</g>
<!-- AppService -->
<g id="node4" class="node">
<title>AppService</title>
<ellipse fill="#fdb462" stroke="black" cx="81" cy="-66.8" rx="56.75" ry="18"/>
<text text-anchor="middle" x="81" y="-62.6" font-family="Times,serif" font-size="14.00">AppService</text>
</g>
<!-- AppService&#45;&gt;AppModule -->
<g id="edge3" class="edge">
<title>AppService&#45;&gt;AppModule</title>
<path fill="none" stroke="black" d="M81,-84.86C81,-121.85 81,-202.8 81,-202.8 81,-202.8 353.31,-202.8 353.31,-202.8"/>
<polygon fill="black" stroke="black" points="353.31,-206.3 363.31,-202.8 353.31,-199.3 353.31,-206.3"/>
</g>
<!-- DressingsService -->
<g id="node5" class="node">
<title>DressingsService</title>
<ellipse fill="#fdb462" stroke="black" cx="405" cy="-66.8" rx="78.17" ry="18"/>
<text text-anchor="middle" x="405" y="-62.6" font-family="Times,serif" font-size="14.00">DressingsService</text>
</g>
<!-- DressingsService&#45;&gt;SaladModule -->
<g id="edge7" class="edge">
<title>DressingsService&#45;&gt;SaladModule</title>
<path fill="none" stroke="black" d="M464.96,-78.4C464.96,-94.81 464.96,-122.8 464.96,-122.8 464.96,-122.8 496.69,-122.8 496.69,-122.8"/>
<polygon fill="black" stroke="black" points="496.69,-126.3 506.69,-122.8 496.69,-119.3 496.69,-126.3"/>
</g>
<!-- DressingsService&#45;&gt;AppModule -->
<g id="edge4" class="edge">
<title>DressingsService&#45;&gt;AppModule</title>
<path fill="none" stroke="black" d="M391.06,-84.6C391.06,-84.6 391.06,-168.79 391.06,-168.79"/>
<polygon fill="black" stroke="black" points="387.56,-168.79 391.06,-178.79 394.56,-168.79 387.56,-168.79"/>
</g>
<!-- ToppingsService -->
<g id="node6" class="node">
<title>ToppingsService</title>
<ellipse fill="#fdb462" stroke="black" cx="232" cy="-66.8" rx="76.45" ry="18"/>
<text text-anchor="middle" x="232" y="-62.6" font-family="Times,serif" font-size="14.00">ToppingsService</text>
</g>
<!-- ToppingsService&#45;&gt;SaladModule -->
<g id="edge9" class="edge">
<title>ToppingsService&#45;&gt;SaladModule</title>
<path fill="none" stroke="black" d="M257.49,-83.88C257.49,-103.14 257.49,-131.8 257.49,-131.8 257.49,-131.8 496.63,-131.8 496.63,-131.8"/>
<polygon fill="black" stroke="black" points="496.63,-135.3 506.63,-131.8 496.63,-128.3 496.63,-135.3"/>
</g>
<!-- ToppingsService&#45;&gt;AppModule -->
<g id="edge5" class="edge">
<title>ToppingsService&#45;&gt;AppModule</title>
<path fill="none" stroke="black" d="M206.51,-83.78C206.51,-117.74 206.51,-190.8 206.51,-190.8 206.51,-190.8 352.9,-190.8 352.9,-190.8"/>
<polygon fill="black" stroke="black" points="352.91,-194.3 362.9,-190.8 352.9,-187.3 352.91,-194.3"/>
</g>
<!-- SaladService -->
<g id="node7" class="node">
<title>SaladService</title>
<ellipse fill="#fdb462" stroke="black" cx="710" cy="-66.8" rx="61.4" ry="18"/>
<text text-anchor="middle" x="710" y="-62.6" font-family="Times,serif" font-size="14.00">SaladService</text>
</g>
<!-- SaladService&#45;&gt;SaladModule -->
<g id="edge8" class="edge">
<title>SaladService&#45;&gt;SaladModule</title>
<path fill="none" stroke="black" d="M710,-84.91C710,-104.14 710,-131.8 710,-131.8 710,-131.8 607.28,-131.8 607.28,-131.8"/>
<polygon fill="black" stroke="black" points="607.28,-128.3 597.28,-131.8 607.28,-135.3 607.28,-128.3"/>
</g>
</g>
</svg>
